<svg width="15" height="14" viewBox="0 0 15 14" fill="none" xmlns="http://www.w3.org/2000/svg">
<path fill-rule="evenodd" clip-rule="evenodd" d="M9.87336 8.80503H10.5057L14.5 12.8073L13.3073 14L9.30503 10.0057V9.37336L9.08891 9.14923C8.17639 9.93368 6.99171 10.4059 5.70297 10.4059C2.82933 10.4059 0.5 8.07662 0.5 5.20297C0.5 2.32933 2.82933 0 5.70297 0C8.57662 0 10.9059 2.32933 10.9059 5.20297C10.9059 6.49171 10.4337 7.67639 9.64923 8.58891L9.87336 8.80503ZM2.19702 5.30302C2.19702 7.29837 3.80773 8.90908 5.80308 8.90908C7.79844 8.90908 9.40914 7.29837 9.40914 5.30302C9.40914 3.30767 7.79844 1.69696 5.80308 1.69696C3.80773 1.69696 2.19702 3.30767 2.19702 5.30302Z" fill="#CACEDB"/>
</svg>
